<svg width="1297" height="810" xmlns="http://www.w3.org/2000/svg" xmlns:xlink="http://www.w3.org/1999/xlink" xml:space="preserve" overflow="hidden"><defs><clipPath id="clip0"><rect x="2472" y="462" width="1297" height="810"/></clipPath><clipPath id="clip1"><rect x="2471" y="462" width="1297" height="810"/></clipPath><clipPath id="clip2"><rect x="2471" y="462" width="1297" height="810"/></clipPath><clipPath id="clip3"><rect x="2471" y="462" width="1297" height="810"/></clipPath><clipPath id="clip4"><rect x="2471" y="462" width="1297" height="810"/></clipPath><clipPath id="clip5"><rect x="2471" y="462" width="1297" height="810"/></clipPath><clipPath id="clip6"><rect x="2471" y="462" width="1297" height="810"/></clipPath><clipPath id="clip7"><rect x="2471" y="462" width="1297" height="810"/></clipPath><clipPath id="clip8"><rect x="2471" y="462" width="1297" height="810"/></clipPath></defs><g clip-path="url(#clip0)" transform="translate(-2472 -462)"><rect x="2472" y="462" width="1297" height="810" fill="#FFFFFF"/><g clip-path="url(#clip1)"><path d="M3024.13 512.503C3219.99 512.503 3378.76 671.275 3378.76 867.13 3378.76 1062.99 3219.99 1221.76 3024.13 1221.76 2958.18 1221.76 2893.52 1203.36 2837.45 1168.64L3024.13 867.13Z" fill="#4472C4" fill-rule="evenodd"/></g><g clip-path="url(#clip2)"><path d="M2837.45 1168.64C2670.93 1065.54 2619.52 846.962 2722.62 680.443 2787.27 576.035 2901.33 512.503 3024.13 512.503L3024.13 867.13Z" fill="#ED7D31" fill-rule="evenodd"/></g><g clip-path="url(#clip3)"><text fill="#FFFFFF" font-family="Times New Roman,Times New Roman_MSFontService,sans-serif" font-weight="400" font-size="55" transform="matrix(1 0 0 1 3064.09 935)">20 (58,8 %)</text></g><g clip-path="url(#clip4)"><text fill="#FFFFFF" font-family="Times New Roman,Times New Roman_MSFontService,sans-serif" font-weight="400" font-size="55" transform="matrix(1 0 0 1 2723 838)">14 (41,2 %)</text></g><g clip-path="url(#clip5)"><rect x="3599" y="813" width="25.9998" height="25.0001" fill="#4472C4"/></g><g clip-path="url(#clip6)"><text fill="#595959" font-family="Times New Roman,Times New Roman_MSFontService,sans-serif" font-weight="400" font-size="50" transform="matrix(1 0 0 1 3635.46 841)">Ano</text></g><g clip-path="url(#clip7)"><rect x="3599" y="896" width="25.9998" height="24.9998" fill="#ED7D31"/></g><g clip-path="url(#clip8)"><text fill="#595959" font-family="Times New Roman,Times New Roman_MSFontService,sans-serif" font-weight="400" font-size="50" transform="matrix(1 0 0 1 3635.46 924)">Ne</text></g></g></svg>