<svg width="1297" height="810" xmlns="http://www.w3.org/2000/svg" xmlns:xlink="http://www.w3.org/1999/xlink" xml:space="preserve" overflow="hidden"><defs><clipPath id="clip0"><rect x="2472" y="462" width="1297" height="810"/></clipPath><clipPath id="clip1"><rect x="2471" y="462" width="1297" height="810"/></clipPath><clipPath id="clip2"><rect x="2471" y="462" width="1297" height="810"/></clipPath><clipPath id="clip3"><rect x="2471" y="462" width="1297" height="810"/></clipPath><clipPath id="clip4"><rect x="2471" y="462" width="1297" height="810"/></clipPath><clipPath id="clip5"><rect x="2471" y="462" width="1297" height="810"/></clipPath><clipPath id="clip6"><rect x="2471" y="462" width="1297" height="810"/></clipPath><clipPath id="clip7"><rect x="2471" y="462" width="1297" height="810"/></clipPath><clipPath id="clip8"><rect x="2471" y="462" width="1297" height="810"/></clipPath><clipPath id="clip9"><rect x="2471" y="462" width="1297" height="810"/></clipPath><clipPath id="clip10"><rect x="2471" y="462" width="1297" height="810"/></clipPath><clipPath id="clip11"><rect x="2471" y="462" width="1297" height="810"/></clipPath><clipPath id="clip12"><rect x="2471" y="462" width="1297" height="810"/></clipPath><clipPath id="clip13"><rect x="2471" y="462" width="1297" height="810"/></clipPath><clipPath id="clip14"><rect x="2471" y="462" width="1297" height="810"/></clipPath></defs><g clip-path="url(#clip0)" transform="translate(-2472 -462)"><rect x="2472" y="462" width="1297" height="810" fill="#FFFFFF"/><g clip-path="url(#clip1)"><path d="M3023.85 512.503C3219.7 512.503 3378.47 671.275 3378.47 867.13 3378.47 1062.99 3219.7 1221.76 3023.85 1221.76 2957.89 1221.76 2893.24 1203.36 2837.16 1168.64L3023.85 867.13Z" fill="#4472C4" fill-rule="evenodd"/></g><g clip-path="url(#clip2)"><path d="M2837.16 1168.64C2670.64 1065.54 2619.23 846.962 2722.34 680.443 2786.98 576.035 2901.04 512.503 3023.85 512.503L3023.85 867.13Z" fill="#ED7D31" fill-rule="evenodd"/></g><g clip-path="url(#clip3)"><text fill="#FFFFFF" font-family="Times New Roman,Times New Roman_MSFontService,sans-serif" font-weight="400" font-size="55" transform="matrix(1 0 0 1 3091.3 935)">20</text></g><g clip-path="url(#clip4)"><text fill="#FFFFFF" font-family="Times New Roman,Times New Roman_MSFontService,sans-serif" font-weight="400" font-size="55" transform="matrix(1 0 0 1 3160.05 935)">(</text></g><g clip-path="url(#clip5)"><text fill="#FFFFFF" font-family="Times New Roman,Times New Roman_MSFontService,sans-serif" font-weight="400" font-size="55" transform="matrix(1 0 0 1 3178.36 935)">59%</text></g><g clip-path="url(#clip6)"><text fill="#FFFFFF" font-family="Times New Roman,Times New Roman_MSFontService,sans-serif" font-weight="400" font-size="55" transform="matrix(1 0 0 1 3279.17 935)">)</text></g><g clip-path="url(#clip7)"><text fill="#FFFFFF" font-family="Times New Roman,Times New Roman_MSFontService,sans-serif" font-weight="400" font-size="55" transform="matrix(1 0 0 1 2750.21 838)">14</text></g><g clip-path="url(#clip8)"><text fill="#FFFFFF" font-family="Times New Roman,Times New Roman_MSFontService,sans-serif" font-weight="400" font-size="55" transform="matrix(1 0 0 1 2818.96 838)">(</text></g><g clip-path="url(#clip9)"><text fill="#FFFFFF" font-family="Times New Roman,Times New Roman_MSFontService,sans-serif" font-weight="400" font-size="55" transform="matrix(1 0 0 1 2837.27 838)">41%</text></g><g clip-path="url(#clip10)"><text fill="#FFFFFF" font-family="Times New Roman,Times New Roman_MSFontService,sans-serif" font-weight="400" font-size="55" transform="matrix(1 0 0 1 2938.08 838)">)</text></g><g clip-path="url(#clip11)"><rect x="3600" y="809" width="27.9998" height="28.0002" fill="#4472C4"/></g><g clip-path="url(#clip12)"><text fill="#595959" font-family="Calibri,Calibri_MSFontService,sans-serif" font-weight="400" font-size="50" transform="matrix(1 0 0 1 3640.04 837)">Ano</text></g><g clip-path="url(#clip13)"><rect x="3600" y="897" width="27.9998" height="28.0002" fill="#ED7D31"/></g><g clip-path="url(#clip14)"><text fill="#595959" font-family="Calibri,Calibri_MSFontService,sans-serif" font-weight="400" font-size="50" transform="matrix(1 0 0 1 3640.04 926)">Ne</text></g></g></svg>