<svg width="1754" height="1024" xmlns="http://www.w3.org/2000/svg" xmlns:xlink="http://www.w3.org/1999/xlink" xml:space="preserve" overflow="hidden"><defs><clipPath id="clip0"><rect x="2005" y="328" width="1754" height="1024"/></clipPath><clipPath id="clip1"><rect x="2005" y="327" width="1753" height="1024"/></clipPath><clipPath id="clip2"><rect x="2005" y="327" width="1753" height="1024"/></clipPath><clipPath id="clip3"><rect x="2005" y="327" width="1753" height="1024"/></clipPath><clipPath id="clip4"><rect x="2005" y="327" width="1753" height="1024"/></clipPath><clipPath id="clip5"><rect x="2005" y="327" width="1753" height="1024"/></clipPath><clipPath id="clip6"><rect x="2005" y="327" width="1753" height="1024"/></clipPath><clipPath id="clip7"><rect x="2005" y="327" width="1753" height="1024"/></clipPath><clipPath id="clip8"><rect x="2005" y="327" width="1753" height="1024"/></clipPath><clipPath id="clip9"><rect x="2005" y="327" width="1753" height="1024"/></clipPath><clipPath id="clip10"><rect x="3201" y="1123" width="304" height="116"/></clipPath><clipPath id="clip11"><rect x="2005" y="327" width="1753" height="1024"/></clipPath><clipPath id="clip12"><rect x="3201" y="1123" width="304" height="116"/></clipPath><clipPath id="clip13"><rect x="2005" y="327" width="1753" height="1024"/></clipPath><clipPath id="clip14"><rect x="3201" y="1123" width="304" height="116"/></clipPath><clipPath id="clip15"><rect x="2005" y="327" width="1753" height="1024"/></clipPath><clipPath id="clip16"><rect x="3201" y="1123" width="304" height="116"/></clipPath><clipPath id="clip17"><rect x="2005" y="327" width="1753" height="1024"/></clipPath><clipPath id="clip18"><rect x="3201" y="1123" width="304" height="116"/></clipPath><clipPath id="clip19"><rect x="2005" y="327" width="1753" height="1024"/></clipPath><clipPath id="clip20"><rect x="3201" y="1123" width="304" height="116"/></clipPath><clipPath id="clip21"><rect x="2005" y="327" width="1753" height="1024"/></clipPath><clipPath id="clip22"><rect x="2005" y="327" width="1753" height="1024"/></clipPath><clipPath id="clip23"><rect x="2005" y="327" width="1753" height="1024"/></clipPath><clipPath id="clip24"><rect x="2202" y="1156" width="261" height="65"/></clipPath><clipPath id="clip25"><rect x="2005" y="327" width="1753" height="1024"/></clipPath><clipPath id="clip26"><rect x="2202" y="1156" width="261" height="65"/></clipPath><clipPath id="clip27"><rect x="2005" y="327" width="1753" height="1024"/></clipPath><clipPath id="clip28"><rect x="2202" y="1156" width="261" height="65"/></clipPath><clipPath id="clip29"><rect x="2005" y="327" width="1753" height="1024"/></clipPath><clipPath id="clip30"><rect x="2202" y="1156" width="261" height="65"/></clipPath><clipPath id="clip31"><rect x="2005" y="327" width="1753" height="1024"/></clipPath><clipPath id="clip32"><rect x="2202" y="1156" width="261" height="65"/></clipPath><clipPath id="clip33"><rect x="2005" y="327" width="1753" height="1024"/></clipPath><clipPath id="clip34"><rect x="2202" y="1156" width="261" height="65"/></clipPath><clipPath id="clip35"><rect x="2005" y="327" width="1753" height="1024"/></clipPath><clipPath id="clip36"><rect x="2005" y="327" width="1753" height="1024"/></clipPath><clipPath id="clip37"><rect x="2005" y="327" width="1753" height="1024"/></clipPath><clipPath id="clip38"><rect x="2093" y="980" width="296" height="117"/></clipPath><clipPath id="clip39"><rect x="2005" y="327" width="1753" height="1024"/></clipPath><clipPath id="clip40"><rect x="2093" y="980" width="296" height="117"/></clipPath><clipPath id="clip41"><rect x="2005" y="327" width="1753" height="1024"/></clipPath><clipPath id="clip42"><rect x="2093" y="980" width="296" height="117"/></clipPath><clipPath id="clip43"><rect x="2005" y="327" width="1753" height="1024"/></clipPath><clipPath id="clip44"><rect x="2093" y="980" width="296" height="117"/></clipPath><clipPath id="clip45"><rect x="2005" y="327" width="1753" height="1024"/></clipPath><clipPath id="clip46"><rect x="2093" y="980" width="296" height="117"/></clipPath><clipPath id="clip47"><rect x="2005" y="327" width="1753" height="1024"/></clipPath><clipPath id="clip48"><rect x="2093" y="980" width="296" height="117"/></clipPath><clipPath id="clip49"><rect x="2005" y="327" width="1753" height="1024"/></clipPath><clipPath id="clip50"><rect x="2005" y="327" width="1753" height="1024"/></clipPath><clipPath id="clip51"><rect x="2005" y="327" width="1753" height="1024"/></clipPath><clipPath id="clip52"><rect x="2102" y="799" width="252" height="66"/></clipPath><clipPath id="clip53"><rect x="2005" y="327" width="1753" height="1024"/></clipPath><clipPath id="clip54"><rect x="2102" y="799" width="252" height="66"/></clipPath><clipPath id="clip55"><rect x="2005" y="327" width="1753" height="1024"/></clipPath><clipPath id="clip56"><rect x="2102" y="799" width="252" height="66"/></clipPath><clipPath id="clip57"><rect x="2005" y="327" width="1753" height="1024"/></clipPath><clipPath id="clip58"><rect x="2102" y="799" width="252" height="66"/></clipPath><clipPath id="clip59"><rect x="2005" y="327" width="1753" height="1024"/></clipPath><clipPath id="clip60"><rect x="2102" y="799" width="252" height="66"/></clipPath><clipPath id="clip61"><rect x="2005" y="327" width="1753" height="1024"/></clipPath><clipPath id="clip62"><rect x="2102" y="799" width="252" height="66"/></clipPath><clipPath id="clip63"><rect x="2005" y="327" width="1753" height="1024"/></clipPath><clipPath id="clip64"><rect x="2005" y="327" width="1753" height="1024"/></clipPath><clipPath id="clip65"><rect x="2005" y="327" width="1753" height="1024"/></clipPath><clipPath id="clip66"><rect x="2111" y="549" width="337" height="116"/></clipPath><clipPath id="clip67"><rect x="2005" y="327" width="1753" height="1024"/></clipPath><clipPath id="clip68"><rect x="2111" y="549" width="337" height="116"/></clipPath><clipPath id="clip69"><rect x="2005" y="327" width="1753" height="1024"/></clipPath><clipPath id="clip70"><rect x="2111" y="549" width="337" height="116"/></clipPath><clipPath id="clip71"><rect x="2005" y="327" width="1753" height="1024"/></clipPath><clipPath id="clip72"><rect x="2111" y="549" width="337" height="116"/></clipPath><clipPath id="clip73"><rect x="2005" y="327" width="1753" height="1024"/></clipPath><clipPath id="clip74"><rect x="2111" y="549" width="337" height="116"/></clipPath><clipPath id="clip75"><rect x="2005" y="327" width="1753" height="1024"/></clipPath><clipPath id="clip76"><rect x="2111" y="549" width="337" height="116"/></clipPath><clipPath id="clip77"><rect x="2005" y="327" width="1753" height="1024"/></clipPath><clipPath id="clip78"><rect x="2005" y="327" width="1753" height="1024"/></clipPath><clipPath id="clip79"><rect x="2005" y="327" width="1753" height="1024"/></clipPath><clipPath id="clip80"><rect x="2444" y="400" width="252" height="66"/></clipPath><clipPath id="clip81"><rect x="2005" y="327" width="1753" height="1024"/></clipPath><clipPath id="clip82"><rect x="2444" y="400" width="252" height="66"/></clipPath><clipPath id="clip83"><rect x="2005" y="327" width="1753" height="1024"/></clipPath><clipPath id="clip84"><rect x="2444" y="400" width="252" height="66"/></clipPath><clipPath id="clip85"><rect x="2005" y="327" width="1753" height="1024"/></clipPath><clipPath id="clip86"><rect x="2444" y="400" width="252" height="66"/></clipPath><clipPath id="clip87"><rect x="2005" y="327" width="1753" height="1024"/></clipPath><clipPath id="clip88"><rect x="2444" y="400" width="252" height="66"/></clipPath><clipPath id="clip89"><rect x="2005" y="327" width="1753" height="1024"/></clipPath><clipPath id="clip90"><rect x="2444" y="400" width="252" height="66"/></clipPath><clipPath id="clip91"><rect x="2005" y="327" width="1753" height="1024"/></clipPath><clipPath id="clip92"><rect x="2005" y="327" width="1753" height="1024"/></clipPath><clipPath id="clip93"><rect x="2005" y="327" width="1753" height="1024"/></clipPath><clipPath id="clip94"><rect x="2005" y="327" width="1753" height="1024"/></clipPath><clipPath id="clip95"><rect x="2005" y="327" width="1753" height="1024"/></clipPath><clipPath id="clip96"><rect x="2005" y="327" width="1753" height="1024"/></clipPath><clipPath id="clip97"><rect x="2005" y="327" width="1753" height="1024"/></clipPath><clipPath id="clip98"><rect x="2005" y="327" width="1753" height="1024"/></clipPath><clipPath id="clip99"><rect x="2005" y="327" width="1753" height="1024"/></clipPath><clipPath id="clip100"><rect x="2005" y="327" width="1753" height="1024"/></clipPath><clipPath id="clip101"><rect x="2005" y="327" width="1753" height="1024"/></clipPath><clipPath id="clip102"><rect x="2005" y="327" width="1753" height="1024"/></clipPath></defs><g clip-path="url(#clip0)" transform="translate(-2005 -328)"><rect x="2005" y="328" width="1754" height="1024" fill="#FFFFFF"/><g clip-path="url(#clip1)"><path d="M2792.72 483.568C3012.25 483.568 3190.22 661.532 3190.22 881.06 3190.22 1100.59 3012.25 1278.55 2792.72 1278.55 2693.65 1278.55 2598.15 1241.55 2524.94 1174.81L2792.72 881.06Z" stroke="#FFFFFF" stroke-width="0" stroke-linejoin="round" stroke-miterlimit="10" fill="#4472C4" fill-rule="evenodd"/></g><g clip-path="url(#clip2)"><path d="M2524.94 1174.81C2470.3 1125 2430.64 1060.95 2410.41 989.839L2792.72 881.06Z" stroke="#FFFFFF" stroke-width="0" stroke-linejoin="round" stroke-miterlimit="10" fill="#ED7D31" fill-rule="evenodd"/></g><g clip-path="url(#clip3)"><path d="M2410.41 989.839C2403.7 966.272 2399.19 942.135 2396.93 917.736L2792.72 881.06Z" stroke="#FFFFFF" stroke-width="0" stroke-linejoin="round" stroke-miterlimit="10" fill="#A5A5A5" fill-rule="evenodd"/></g><g clip-path="url(#clip4)"><path d="M2396.93 917.736 2792.72 881.06Z" stroke="#FFFFFF" stroke-width="0" stroke-linejoin="round" stroke-miterlimit="10" fill="#FFC000" fill-rule="evenodd"/></g><g clip-path="url(#clip5)"><path d="M2396.93 917.736C2383.01 767.584 2455.26 622.489 2583.47 543.106L2792.72 881.06Z" stroke="#FFFFFF" stroke-width="0" stroke-linejoin="round" stroke-miterlimit="10" fill="#5B9BD5" fill-rule="evenodd"/></g><g clip-path="url(#clip6)"><path d="M2583.47 543.106C2646.33 504.187 2718.79 483.569 2792.72 483.569L2792.72 881.06Z" stroke="#FFFFFF" stroke-width="0" stroke-linejoin="round" stroke-miterlimit="10" fill="#70AD47" fill-rule="evenodd"/></g><g clip-path="url(#clip7)"><rect x="3141.5" y="1143.5" width="22" height="22.9996" stroke="#FFFFFF" stroke-width="0" stroke-linejoin="round" stroke-miterlimit="10" fill="#4472C4"/></g><g clip-path="url(#clip8)"><path d="M3201.5 1123.5 3252 1123.5 3163.79 1025.3 3327.75 1123.5 3504.5 1123.5 3504.5 1142.67 3504.5 1142.67 3504.5 1171.42 3504.5 1238.5 3327.75 1238.5 3252 1238.5 3252 1238.5 3201.5 1238.5 3201.5 1171.42 3201.5 1142.67 3201.5 1142.67Z" stroke="#BFBFBF" stroke-width="3.4375" stroke-linejoin="round" stroke-miterlimit="10" fill="#FFFFFF" fill-rule="evenodd"/></g><g clip-path="url(#clip9)"><g clip-path="url(#clip10)"><text fill="#595959" font-family="Calibri,Calibri_MSFontService,sans-serif" font-weight="400" font-size="41" transform="matrix(1 0 0 1 3216.3 1170)">Google Chrome</text></g></g><g clip-path="url(#clip11)"><g clip-path="url(#clip12)"><text fill="#595959" font-family="Calibri,Calibri_MSFontService,sans-serif" font-weight="400" font-size="41" transform="matrix(1 0 0 1 3477.87 1170)">; </text></g></g><g clip-path="url(#clip13)"><g clip-path="url(#clip14)"><text fill="#595959" font-family="Calibri,Calibri_MSFontService,sans-serif" font-weight="400" font-size="41" transform="matrix(1 0 0 1 3278.89 1221)">21</text></g></g><g clip-path="url(#clip15)"><g clip-path="url(#clip16)"><text fill="#595959" font-family="Calibri,Calibri_MSFontService,sans-serif" font-weight="400" font-size="41" transform="matrix(1 0 0 1 3330.01 1221)">(</text></g></g><g clip-path="url(#clip17)"><g clip-path="url(#clip18)"><text fill="#595959" font-family="Calibri,Calibri_MSFontService,sans-serif" font-weight="400" font-size="41" transform="matrix(1 0 0 1 3342.53 1221)">62%</text></g></g><g clip-path="url(#clip19)"><g clip-path="url(#clip20)"><text fill="#595959" font-family="Calibri,Calibri_MSFontService,sans-serif" font-weight="400" font-size="41" transform="matrix(1 0 0 1 3413.82 1221)">)</text></g></g><g clip-path="url(#clip21)"><rect x="2142.5" y="1176.5" width="23" height="22.9996" stroke="#FFFFFF" stroke-width="0" stroke-linejoin="round" stroke-miterlimit="10" fill="#ED7D31"/></g><g clip-path="url(#clip22)"><path d="M2202.5 1156.5 2354.17 1156.5 2455.02 1091.35 2419.17 1156.5 2462.5 1156.5 2462.5 1167.17 2462.5 1167.17 2462.5 1183.17 2462.5 1220.5 2419.17 1220.5 2354.17 1220.5 2354.17 1220.5 2202.5 1220.5 2202.5 1183.17 2202.5 1167.17 2202.5 1167.17Z" stroke="#BFBFBF" stroke-width="3.4375" stroke-linejoin="round" stroke-miterlimit="10" fill="#FFFFFF" fill-rule="evenodd"/></g><g clip-path="url(#clip23)"><g clip-path="url(#clip24)"><text fill="#595959" font-family="Calibri,Calibri_MSFontService,sans-serif" font-weight="400" font-size="41" transform="matrix(1 0 0 1 2217.54 1202)">Opera</text></g></g><g clip-path="url(#clip25)"><g clip-path="url(#clip26)"><text fill="#595959" font-family="Calibri,Calibri_MSFontService,sans-serif" font-weight="400" font-size="41" transform="matrix(1 0 0 1 2321.21 1202)">; </text></g></g><g clip-path="url(#clip27)"><g clip-path="url(#clip28)"><text fill="#595959" font-family="Calibri,Calibri_MSFontService,sans-serif" font-weight="400" font-size="41" transform="matrix(1 0 0 1 2341.59 1202)">3</text></g></g><g clip-path="url(#clip29)"><g clip-path="url(#clip30)"><text fill="#595959" font-family="Calibri,Calibri_MSFontService,sans-serif" font-weight="400" font-size="41" transform="matrix(1 0 0 1 2371.81 1202)">(</text></g></g><g clip-path="url(#clip31)"><g clip-path="url(#clip32)"><text fill="#595959" font-family="Calibri,Calibri_MSFontService,sans-serif" font-weight="400" font-size="41" transform="matrix(1 0 0 1 2384.33 1202)">9%</text></g></g><g clip-path="url(#clip33)"><g clip-path="url(#clip34)"><text fill="#595959" font-family="Calibri,Calibri_MSFontService,sans-serif" font-weight="400" font-size="41" transform="matrix(1 0 0 1 2434.72 1202)">)</text></g></g><g clip-path="url(#clip35)"><rect x="2033.5" y="1001.5" width="23.0001" height="23.0001" stroke="#FFFFFF" stroke-width="0" stroke-linejoin="round" stroke-miterlimit="10" fill="#A5A5A5"/></g><g clip-path="url(#clip36)"><path d="M2093.5 980.5 2265.58 980.5 2401.58 953.588 2339.33 980.5 2388.5 980.5 2388.5 999.833 2388.5 999.833 2388.5 1028.83 2388.5 1096.5 2339.33 1096.5 2265.58 1096.5 2265.58 1096.5 2093.5 1096.5 2093.5 1028.83 2093.5 999.833 2093.5 999.833Z" stroke="#BFBFBF" stroke-width="3.4375" stroke-linejoin="round" stroke-miterlimit="10" fill="#FFFFFF" fill-rule="evenodd"/></g><g clip-path="url(#clip37)"><g clip-path="url(#clip38)"><text fill="#595959" font-family="Calibri,Calibri_MSFontService,sans-serif" font-weight="400" font-size="41" transform="matrix(1 0 0 1 2109.01 1027)">Microsoft Edge</text></g></g><g clip-path="url(#clip39)"><g clip-path="url(#clip40)"><text fill="#595959" font-family="Calibri,Calibri_MSFontService,sans-serif" font-weight="400" font-size="41" transform="matrix(1 0 0 1 2362.69 1027)">;</text></g></g><g clip-path="url(#clip41)"><g clip-path="url(#clip42)"><text fill="#595959" font-family="Calibri,Calibri_MSFontService,sans-serif" font-weight="400" font-size="41" transform="matrix(1 0 0 1 2188.55 1078)">1</text></g></g><g clip-path="url(#clip43)"><g clip-path="url(#clip44)"><text fill="#595959" font-family="Calibri,Calibri_MSFontService,sans-serif" font-weight="400" font-size="41" transform="matrix(1 0 0 1 2218.78 1078)">(</text></g></g><g clip-path="url(#clip45)"><g clip-path="url(#clip46)"><text fill="#595959" font-family="Calibri,Calibri_MSFontService,sans-serif" font-weight="400" font-size="41" transform="matrix(1 0 0 1 2231.29 1078)">3%</text></g></g><g clip-path="url(#clip47)"><g clip-path="url(#clip48)"><text fill="#595959" font-family="Calibri,Calibri_MSFontService,sans-serif" font-weight="400" font-size="41" transform="matrix(1 0 0 1 2281.68 1078)">)</text></g></g><g clip-path="url(#clip49)"><rect x="2042.5" y="820.5" width="23.0001" height="23.0001" stroke="#FFFFFF" stroke-width="0" stroke-linejoin="round" stroke-miterlimit="10" fill="#FFC000"/></g><g clip-path="url(#clip50)"><path d="M2102.5 799.5 2248.92 799.5 2248.92 799.5 2311.67 799.5 2353.5 799.5 2353.5 837.417 2353.5 837.417 2353.5 853.667 2353.5 864.5 2311.67 864.5 2396.62 917.832 2248.92 864.5 2102.5 864.5 2102.5 853.667 2102.5 837.417 2102.5 837.417Z" stroke="#BFBFBF" stroke-width="3.4375" stroke-linejoin="round" stroke-miterlimit="10" fill="#FFFFFF" fill-rule="evenodd"/></g><g clip-path="url(#clip51)"><g clip-path="url(#clip52)"><text fill="#595959" font-family="Calibri,Calibri_MSFontService,sans-serif" font-weight="400" font-size="41" transform="matrix(1 0 0 1 2117.96 846)">Safari</text></g></g><g clip-path="url(#clip53)"><g clip-path="url(#clip54)"><text fill="#595959" font-family="Calibri,Calibri_MSFontService,sans-serif" font-weight="400" font-size="41" transform="matrix(1 0 0 1 2212.86 846)">; </text></g></g><g clip-path="url(#clip55)"><g clip-path="url(#clip56)"><text fill="#595959" font-family="Calibri,Calibri_MSFontService,sans-serif" font-weight="400" font-size="41" transform="matrix(1 0 0 1 2233.23 846)">0</text></g></g><g clip-path="url(#clip57)"><g clip-path="url(#clip58)"><text fill="#595959" font-family="Calibri,Calibri_MSFontService,sans-serif" font-weight="400" font-size="41" transform="matrix(1 0 0 1 2263.46 846)">(</text></g></g><g clip-path="url(#clip59)"><g clip-path="url(#clip60)"><text fill="#595959" font-family="Calibri,Calibri_MSFontService,sans-serif" font-weight="400" font-size="41" transform="matrix(1 0 0 1 2275.97 846)">0%</text></g></g><g clip-path="url(#clip61)"><g clip-path="url(#clip62)"><text fill="#595959" font-family="Calibri,Calibri_MSFontService,sans-serif" font-weight="400" font-size="41" transform="matrix(1 0 0 1 2326.36 846)">)</text></g></g><g clip-path="url(#clip63)"><rect x="2080.5" y="569.5" width="23" height="23.0001" stroke="#FFFFFF" stroke-width="0" stroke-linejoin="round" stroke-miterlimit="10" fill="#5B9BD5"/></g><g clip-path="url(#clip64)"><path d="M2111.5 549.5 2307.5 549.5 2307.5 549.5 2391.5 549.5 2447.5 549.5 2447.5 616.583 2447.5 616.583 2447.5 645.334 2447.5 664.5 2391.5 664.5 2437.38 703.52 2307.5 664.5 2111.5 664.5 2111.5 645.334 2111.5 616.583 2111.5 616.583Z" stroke="#BFBFBF" stroke-width="3.4375" stroke-linejoin="round" stroke-miterlimit="10" fill="#FFFFFF" fill-rule="evenodd"/></g><g clip-path="url(#clip65)"><g clip-path="url(#clip66)"><text fill="#595959" font-family="Calibri,Calibri_MSFontService,sans-serif" font-weight="400" font-size="41" transform="matrix(1 0 0 1 2150.34 596)">Mozilla Firefox</text></g></g><g clip-path="url(#clip67)"><g clip-path="url(#clip68)"><text fill="#595959" font-family="Calibri,Calibri_MSFontService,sans-serif" font-weight="400" font-size="41" transform="matrix(1 0 0 1 2396.67 596)">; </text></g></g><g clip-path="url(#clip69)"><g clip-path="url(#clip70)"><text fill="#595959" font-family="Calibri,Calibri_MSFontService,sans-serif" font-weight="400" font-size="41" transform="matrix(1 0 0 1 2215.76 647)">6</text></g></g><g clip-path="url(#clip71)"><g clip-path="url(#clip72)"><text fill="#595959" font-family="Calibri,Calibri_MSFontService,sans-serif" font-weight="400" font-size="41" transform="matrix(1 0 0 1 2245.99 647)">(</text></g></g><g clip-path="url(#clip73)"><g clip-path="url(#clip74)"><text fill="#595959" font-family="Calibri,Calibri_MSFontService,sans-serif" font-weight="400" font-size="41" transform="matrix(1 0 0 1 2258.5 647)">17%</text></g></g><g clip-path="url(#clip75)"><g clip-path="url(#clip76)"><text fill="#595959" font-family="Calibri,Calibri_MSFontService,sans-serif" font-weight="400" font-size="41" transform="matrix(1 0 0 1 2329.8 647)">)</text></g></g><g clip-path="url(#clip77)"><rect x="2384.5" y="420.5" width="22" height="23" stroke="#FFFFFF" stroke-width="0" stroke-linejoin="round" stroke-miterlimit="10" fill="#70AD47"/></g><g clip-path="url(#clip78)"><path d="M2444.5 400.5 2590.92 400.5 2590.92 400.5 2653.67 400.5 2695.5 400.5 2695.5 438.417 2695.5 438.417 2695.5 454.667 2695.5 465.5 2653.67 465.5 2683.51 499.269 2590.92 465.5 2444.5 465.5 2444.5 454.667 2444.5 438.417 2444.5 438.417Z" stroke="#BFBFBF" stroke-width="3.4375" stroke-linejoin="round" stroke-miterlimit="10" fill="#FFFFFF" fill-rule="evenodd"/></g><g clip-path="url(#clip79)"><g clip-path="url(#clip80)"><text fill="#595959" font-family="Calibri,Calibri_MSFontService,sans-serif" font-weight="400" font-size="41" transform="matrix(1 0 0 1 2459.24 447)">Brave</text></g></g><g clip-path="url(#clip81)"><g clip-path="url(#clip82)"><text fill="#595959" font-family="Calibri,Calibri_MSFontService,sans-serif" font-weight="400" font-size="41" transform="matrix(1 0 0 1 2554.98 447)">; </text></g></g><g clip-path="url(#clip83)"><g clip-path="url(#clip84)"><text fill="#595959" font-family="Calibri,Calibri_MSFontService,sans-serif" font-weight="400" font-size="41" transform="matrix(1 0 0 1 2575.36 447)">3</text></g></g><g clip-path="url(#clip85)"><g clip-path="url(#clip86)"><text fill="#595959" font-family="Calibri,Calibri_MSFontService,sans-serif" font-weight="400" font-size="41" transform="matrix(1 0 0 1 2605.58 447)">(</text></g></g><g clip-path="url(#clip87)"><g clip-path="url(#clip88)"><text fill="#595959" font-family="Calibri,Calibri_MSFontService,sans-serif" font-weight="400" font-size="41" transform="matrix(1 0 0 1 2618.09 447)">9%</text></g></g><g clip-path="url(#clip89)"><g clip-path="url(#clip90)"><text fill="#595959" font-family="Calibri,Calibri_MSFontService,sans-serif" font-weight="400" font-size="41" transform="matrix(1 0 0 1 2668.49 447)">)</text></g></g><g clip-path="url(#clip91)"><rect x="3418.5" y="635.5" width="23" height="22" stroke="#FFFFFF" stroke-width="0" stroke-linejoin="round" stroke-miterlimit="10" fill="#4472C4"/></g><g clip-path="url(#clip92)"><text fill="#595959" font-family="Calibri,Calibri_MSFontService,sans-serif" font-weight="400" font-size="41" transform="matrix(1 0 0 1 3450.79 658)">Google Chrome</text></g><g clip-path="url(#clip93)"><rect x="3418.5" y="712.5" width="23" height="23.0001" stroke="#FFFFFF" stroke-width="0" stroke-linejoin="round" stroke-miterlimit="10" fill="#ED7D31"/></g><g clip-path="url(#clip94)"><text fill="#595959" font-family="Calibri,Calibri_MSFontService,sans-serif" font-weight="400" font-size="41" transform="matrix(1 0 0 1 3450.79 735)">Opera</text></g><g clip-path="url(#clip95)"><rect x="3418.5" y="789.5" width="23" height="23.0001" stroke="#FFFFFF" stroke-width="0" stroke-linejoin="round" stroke-miterlimit="10" fill="#A5A5A5"/></g><g clip-path="url(#clip96)"><text fill="#595959" font-family="Calibri,Calibri_MSFontService,sans-serif" font-weight="400" font-size="41" transform="matrix(1 0 0 1 3450.79 813)">Microsoft Edge</text></g><g clip-path="url(#clip97)"><rect x="3418.5" y="867.5" width="23" height="22" stroke="#FFFFFF" stroke-width="0" stroke-linejoin="round" stroke-miterlimit="10" fill="#FFC000"/></g><g clip-path="url(#clip98)"><text fill="#595959" font-family="Calibri,Calibri_MSFontService,sans-serif" font-weight="400" font-size="41" transform="matrix(1 0 0 1 3450.79 890)">Safari</text></g><g clip-path="url(#clip99)"><rect x="3418.5" y="944.5" width="23" height="23.0001" stroke="#FFFFFF" stroke-width="0" stroke-linejoin="round" stroke-miterlimit="10" fill="#5B9BD5"/></g><g clip-path="url(#clip100)"><text fill="#595959" font-family="Calibri,Calibri_MSFontService,sans-serif" font-weight="400" font-size="41" transform="matrix(1 0 0 1 3450.79 967)">Mozilla Firefox</text></g><g clip-path="url(#clip101)"><rect x="3418.5" y="1021.5" width="23" height="23" stroke="#FFFFFF" stroke-width="0" stroke-linejoin="round" stroke-miterlimit="10" fill="#70AD47"/></g><g clip-path="url(#clip102)"><text fill="#595959" font-family="Calibri,Calibri_MSFontService,sans-serif" font-weight="400" font-size="41" transform="matrix(1 0 0 1 3450.79 1045)">Brave</text></g></g></svg>