<svg width="1754" height="1024" xmlns="http://www.w3.org/2000/svg" xmlns:xlink="http://www.w3.org/1999/xlink" xml:space="preserve" overflow="hidden"><defs><clipPath id="clip0"><rect x="2005" y="328" width="1754" height="1024"/></clipPath><clipPath id="clip1"><rect x="2005" y="327" width="1753" height="1024"/></clipPath><clipPath id="clip2"><rect x="2005" y="327" width="1753" height="1024"/></clipPath><clipPath id="clip3"><rect x="2005" y="327" width="1753" height="1024"/></clipPath><clipPath id="clip4"><rect x="2005" y="327" width="1753" height="1024"/></clipPath><clipPath id="clip5"><rect x="2005" y="327" width="1753" height="1024"/></clipPath><clipPath id="clip6"><rect x="2005" y="327" width="1753" height="1024"/></clipPath><clipPath id="clip7"><rect x="2005" y="327" width="1753" height="1024"/></clipPath><clipPath id="clip8"><rect x="2005" y="327" width="1753" height="1024"/></clipPath><clipPath id="clip9"><rect x="3171" y="1108" width="339" height="121"/></clipPath><clipPath id="clip10"><rect x="2005" y="327" width="1753" height="1024"/></clipPath><clipPath id="clip11"><rect x="3171" y="1108" width="339" height="121"/></clipPath><clipPath id="clip12"><rect x="2005" y="327" width="1753" height="1024"/></clipPath><clipPath id="clip13"><rect x="2005" y="327" width="1753" height="1024"/></clipPath><clipPath id="clip14"><rect x="2118" y="1159" width="340" height="68"/></clipPath><clipPath id="clip15"><rect x="2005" y="327" width="1753" height="1024"/></clipPath><clipPath id="clip16"><rect x="2005" y="327" width="1753" height="1024"/></clipPath><clipPath id="clip17"><rect x="2053" y="976" width="331" height="122"/></clipPath><clipPath id="clip18"><rect x="2005" y="327" width="1753" height="1024"/></clipPath><clipPath id="clip19"><rect x="2053" y="976" width="331" height="122"/></clipPath><clipPath id="clip20"><rect x="2005" y="327" width="1753" height="1024"/></clipPath><clipPath id="clip21"><rect x="2005" y="327" width="1753" height="1024"/></clipPath><clipPath id="clip22"><rect x="2072" y="829" width="302" height="68"/></clipPath><clipPath id="clip23"><rect x="2005" y="327" width="1753" height="1024"/></clipPath><clipPath id="clip24"><rect x="2005" y="327" width="1753" height="1024"/></clipPath><clipPath id="clip25"><rect x="2096" y="560" width="334" height="122"/></clipPath><clipPath id="clip26"><rect x="2005" y="327" width="1753" height="1024"/></clipPath><clipPath id="clip27"><rect x="2096" y="560" width="334" height="122"/></clipPath><clipPath id="clip28"><rect x="2005" y="327" width="1753" height="1024"/></clipPath><clipPath id="clip29"><rect x="2005" y="327" width="1753" height="1024"/></clipPath><clipPath id="clip30"><rect x="2363" y="416" width="338" height="68"/></clipPath><clipPath id="clip31"><rect x="2005" y="327" width="1753" height="1024"/></clipPath><clipPath id="clip32"><rect x="2005" y="327" width="1753" height="1024"/></clipPath><clipPath id="clip33"><rect x="2005" y="327" width="1753" height="1024"/></clipPath><clipPath id="clip34"><rect x="2005" y="327" width="1753" height="1024"/></clipPath><clipPath id="clip35"><rect x="2005" y="327" width="1753" height="1024"/></clipPath><clipPath id="clip36"><rect x="2005" y="327" width="1753" height="1024"/></clipPath><clipPath id="clip37"><rect x="2005" y="327" width="1753" height="1024"/></clipPath><clipPath id="clip38"><rect x="2005" y="327" width="1753" height="1024"/></clipPath><clipPath id="clip39"><rect x="2005" y="327" width="1753" height="1024"/></clipPath><clipPath id="clip40"><rect x="2005" y="327" width="1753" height="1024"/></clipPath><clipPath id="clip41"><rect x="2005" y="327" width="1753" height="1024"/></clipPath><clipPath id="clip42"><rect x="2005" y="327" width="1753" height="1024"/></clipPath></defs><g clip-path="url(#clip0)" transform="translate(-2005 -328)"><rect x="2005" y="328" width="1754" height="1024" fill="#FFFFFF"/><g clip-path="url(#clip1)"><path d="M2792.72 483.568C3012.25 483.568 3190.22 661.532 3190.22 881.06 3190.22 1100.59 3012.25 1278.55 2792.72 1278.55 2693.65 1278.55 2598.15 1241.55 2524.94 1174.81L2792.72 881.06Z" stroke="#FFFFFF" stroke-width="0" stroke-linejoin="round" stroke-miterlimit="10" fill="#4472C4" fill-rule="evenodd"/></g><g clip-path="url(#clip2)"><path d="M2524.94 1174.81C2470.3 1125 2430.64 1060.95 2410.41 989.839L2792.72 881.06Z" stroke="#FFFFFF" stroke-width="0" stroke-linejoin="round" stroke-miterlimit="10" fill="#ED7D31" fill-rule="evenodd"/></g><g clip-path="url(#clip3)"><path d="M2410.41 989.839C2403.7 966.272 2399.19 942.135 2396.93 917.736L2792.72 881.06Z" stroke="#FFFFFF" stroke-width="0" stroke-linejoin="round" stroke-miterlimit="10" fill="#A5A5A5" fill-rule="evenodd"/></g><g clip-path="url(#clip4)"><path d="M2396.93 917.736 2792.72 881.06Z" stroke="#FFFFFF" stroke-width="0" stroke-linejoin="round" stroke-miterlimit="10" fill="#FFC000" fill-rule="evenodd"/></g><g clip-path="url(#clip5)"><path d="M2396.93 917.736C2383.01 767.584 2455.26 622.489 2583.47 543.106L2792.72 881.06Z" stroke="#FFFFFF" stroke-width="0" stroke-linejoin="round" stroke-miterlimit="10" fill="#5B9BD5" fill-rule="evenodd"/></g><g clip-path="url(#clip6)"><path d="M2583.47 543.106C2646.33 504.187 2718.79 483.569 2792.72 483.569L2792.72 881.06Z" stroke="#FFFFFF" stroke-width="0" stroke-linejoin="round" stroke-miterlimit="10" fill="#70AD47" fill-rule="evenodd"/></g><g clip-path="url(#clip7)"><path d="M3171.5 1108.5 3227.83 1108.5 3163.03 1025.26 3312.33 1108.5 3509.5 1108.5 3509.5 1128.5 3509.5 1128.5 3509.5 1158.5 3509.5 1228.5 3312.33 1228.5 3227.83 1228.5 3227.83 1228.5 3171.5 1228.5 3171.5 1158.5 3171.5 1128.5 3171.5 1128.5Z" stroke="#BFBFBF" stroke-width="3.4375" stroke-linejoin="round" stroke-miterlimit="10" fill="#FFFFFF" fill-rule="evenodd"/></g><g clip-path="url(#clip8)"><g clip-path="url(#clip9)"><text fill="#595959" font-family="Times New Roman,Times New Roman_MSFontService,sans-serif" font-weight="400" font-size="46" transform="matrix(1 0 0 1 3187.21 1159)">Google Chrome; </text></g></g><g clip-path="url(#clip10)"><g clip-path="url(#clip11)"><text fill="#595959" font-family="Times New Roman,Times New Roman_MSFontService,sans-serif" font-weight="400" font-size="46" transform="matrix(1 0 0 1 3231.78 1211)">21 (61,8 %)</text></g></g><g clip-path="url(#clip12)"><path d="M2118.5 1159.5 2316.25 1159.5 2455.14 1090.68 2401 1159.5 2457.5 1159.5 2457.5 1170.67 2457.5 1170.67 2457.5 1187.42 2457.5 1226.5 2401 1226.5 2316.25 1226.5 2316.25 1226.5 2118.5 1226.5 2118.5 1187.42 2118.5 1170.67 2118.5 1170.67Z" stroke="#BFBFBF" stroke-width="3.4375" stroke-linejoin="round" stroke-miterlimit="10" fill="#FFFFFF" fill-rule="evenodd"/></g><g clip-path="url(#clip13)"><g clip-path="url(#clip14)"><text fill="#595959" font-family="Times New Roman,Times New Roman_MSFontService,sans-serif" font-weight="400" font-size="46" transform="matrix(1 0 0 1 2133.74 1209)">Opera; 3 (8,8 %)</text></g></g><g clip-path="url(#clip15)"><path d="M2053.5 976.5 2246 976.5 2402.07 953.62 2328.5 976.5 2383.5 976.5 2383.5 996.667 2383.5 996.667 2383.5 1026.92 2383.5 1097.5 2328.5 1097.5 2246 1097.5 2246 1097.5 2053.5 1097.5 2053.5 1026.92 2053.5 996.667 2053.5 996.667Z" stroke="#BFBFBF" stroke-width="3.4375" stroke-linejoin="round" stroke-miterlimit="10" fill="#FFFFFF" fill-rule="evenodd"/></g><g clip-path="url(#clip16)"><g clip-path="url(#clip17)"><text fill="#595959" font-family="Times New Roman,Times New Roman_MSFontService,sans-serif" font-weight="400" font-size="46" transform="matrix(1 0 0 1 2068.94 1027)">Microsoft Edge; </text></g></g><g clip-path="url(#clip18)"><g clip-path="url(#clip19)"><text fill="#595959" font-family="Times New Roman,Times New Roman_MSFontService,sans-serif" font-weight="400" font-size="46" transform="matrix(1 0 0 1 2132.6 1079)">1 (2,9 %)</text></g></g><g clip-path="url(#clip20)"><path d="M2072.5 829.5 2248.08 829.5 2248.08 829.5 2323.33 829.5 2373.5 829.5 2373.5 868.583 2373.5 868.583 2373.5 885.333 2373.5 896.5 2323.33 896.5 2396.58 917.919 2248.08 896.5 2072.5 896.5 2072.5 885.333 2072.5 868.583 2072.5 868.583Z" stroke="#BFBFBF" stroke-width="3.4375" stroke-linejoin="round" stroke-miterlimit="10" fill="#FFFFFF" fill-rule="evenodd"/></g><g clip-path="url(#clip21)"><g clip-path="url(#clip22)"><text fill="#595959" font-family="Times New Roman,Times New Roman_MSFontService,sans-serif" font-weight="400" font-size="46" transform="matrix(1 0 0 1 2087.49 879)">Safari; 0 (0 %)</text></g></g><g clip-path="url(#clip23)"><path d="M2096.5 560.5 2290.75 560.5 2290.75 560.5 2374 560.5 2429.5 560.5 2429.5 631.084 2429.5 631.084 2429.5 661.334 2429.5 681.5 2374 681.5 2437.16 704.342 2290.75 681.5 2096.5 681.5 2096.5 661.334 2096.5 631.084 2096.5 631.084Z" stroke="#BFBFBF" stroke-width="3.4375" stroke-linejoin="round" stroke-miterlimit="10" fill="#FFFFFF" fill-rule="evenodd"/></g><g clip-path="url(#clip24)"><g clip-path="url(#clip25)"><text fill="#595959" font-family="Times New Roman,Times New Roman_MSFontService,sans-serif" font-weight="400" font-size="46" transform="matrix(1 0 0 1 2112.18 611)">Mozilla Firefox; </text></g></g><g clip-path="url(#clip26)"><g clip-path="url(#clip27)"><text fill="#595959" font-family="Times New Roman,Times New Roman_MSFontService,sans-serif" font-weight="400" font-size="46" transform="matrix(1 0 0 1 2165.66 663)">6 (17,6 %)</text></g></g><g clip-path="url(#clip28)"><path d="M2363.5 416.5 2560.08 416.5 2560.08 416.5 2644.33 416.5 2700.5 416.5 2700.5 455.584 2700.5 455.584 2700.5 472.333 2700.5 483.5 2644.33 483.5 2684.24 498.769 2560.08 483.5 2363.5 483.5 2363.5 472.333 2363.5 455.584 2363.5 455.584Z" stroke="#BFBFBF" stroke-width="3.4375" stroke-linejoin="round" stroke-miterlimit="10" fill="#FFFFFF" fill-rule="evenodd"/></g><g clip-path="url(#clip29)"><g clip-path="url(#clip30)"><text fill="#595959" font-family="Times New Roman,Times New Roman_MSFontService,sans-serif" font-weight="400" font-size="46" transform="matrix(1 0 0 1 2379.31 467)">Brave; 3 (8,8 %)</text></g></g><g clip-path="url(#clip31)"><rect x="3385.5" y="634.5" width="23" height="22" stroke="#FFFFFF" stroke-width="0" stroke-linejoin="round" stroke-miterlimit="10" fill="#4472C4"/></g><g clip-path="url(#clip32)"><text fill="#595959" font-family="Times New Roman,Times New Roman_MSFontService,sans-serif" font-weight="400" font-size="46" transform="matrix(1 0 0 1 3418.29 660)">Google Chrome</text></g><g clip-path="url(#clip33)"><rect x="3385.5" y="711.5" width="23" height="23.0001" stroke="#FFFFFF" stroke-width="0" stroke-linejoin="round" stroke-miterlimit="10" fill="#ED7D31"/></g><g clip-path="url(#clip34)"><text fill="#595959" font-family="Times New Roman,Times New Roman_MSFontService,sans-serif" font-weight="400" font-size="46" transform="matrix(1 0 0 1 3418.29 738)">Opera</text></g><g clip-path="url(#clip35)"><rect x="3385.5" y="789.5" width="23" height="23.0001" stroke="#FFFFFF" stroke-width="0" stroke-linejoin="round" stroke-miterlimit="10" fill="#A5A5A5"/></g><g clip-path="url(#clip36)"><text fill="#595959" font-family="Times New Roman,Times New Roman_MSFontService,sans-serif" font-weight="400" font-size="46" transform="matrix(1 0 0 1 3418.29 815)">Microsoft Edge</text></g><g clip-path="url(#clip37)"><rect x="3385.5" y="867.5" width="23" height="23.0001" stroke="#FFFFFF" stroke-width="0" stroke-linejoin="round" stroke-miterlimit="10" fill="#FFC000"/></g><g clip-path="url(#clip38)"><text fill="#595959" font-family="Times New Roman,Times New Roman_MSFontService,sans-serif" font-weight="400" font-size="46" transform="matrix(1 0 0 1 3418.29 893)">Safari</text></g><g clip-path="url(#clip39)"><rect x="3385.5" y="945.5" width="23" height="22" stroke="#FFFFFF" stroke-width="0" stroke-linejoin="round" stroke-miterlimit="10" fill="#5B9BD5"/></g><g clip-path="url(#clip40)"><text fill="#595959" font-family="Times New Roman,Times New Roman_MSFontService,sans-serif" font-weight="400" font-size="46" transform="matrix(1 0 0 1 3418.29 971)">Mozilla Firefox</text></g><g clip-path="url(#clip41)"><rect x="3385.5" y="1022.5" width="23" height="22.9997" stroke="#FFFFFF" stroke-width="0" stroke-linejoin="round" stroke-miterlimit="10" fill="#70AD47"/></g><g clip-path="url(#clip42)"><text fill="#595959" font-family="Times New Roman,Times New Roman_MSFontService,sans-serif" font-weight="400" font-size="46" transform="matrix(1 0 0 1 3418.29 1049)">Brave</text></g></g></svg>