<svg width="1535" height="768" xmlns="http://www.w3.org/2000/svg" xmlns:xlink="http://www.w3.org/1999/xlink" xml:space="preserve" overflow="hidden"><defs><clipPath id="clip0"><rect x="4210" y="369" width="1535" height="768"/></clipPath><clipPath id="clip1"><rect x="4211" y="369" width="1532" height="766"/></clipPath><clipPath id="clip2"><rect x="4211" y="369" width="1532" height="766"/></clipPath><clipPath id="clip3"><rect x="4211" y="369" width="1532" height="766"/></clipPath><clipPath id="clip4"><rect x="4330" y="420" width="1366" height="604"/></clipPath><clipPath id="clip5"><rect x="4211" y="369" width="1532" height="766"/></clipPath><clipPath id="clip6"><rect x="4211" y="369" width="1532" height="766"/></clipPath><clipPath id="clip7"><rect x="4211" y="369" width="1532" height="766"/></clipPath><clipPath id="clip8"><rect x="4211" y="369" width="1532" height="766"/></clipPath><clipPath id="clip9"><rect x="4211" y="369" width="1532" height="766"/></clipPath><clipPath id="clip10"><rect x="4211" y="369" width="1532" height="766"/></clipPath><clipPath id="clip11"><rect x="4211" y="369" width="1532" height="766"/></clipPath><clipPath id="clip12"><rect x="4211" y="369" width="1532" height="766"/></clipPath><clipPath id="clip13"><rect x="4211" y="369" width="1532" height="766"/></clipPath><clipPath id="clip14"><rect x="4211" y="369" width="1532" height="766"/></clipPath><clipPath id="clip15"><rect x="4211" y="369" width="1532" height="766"/></clipPath><clipPath id="clip16"><rect x="4211" y="369" width="1532" height="766"/></clipPath><clipPath id="clip17"><rect x="4211" y="369" width="1532" height="766"/></clipPath><clipPath id="clip18"><rect x="4211" y="369" width="1532" height="766"/></clipPath><clipPath id="clip19"><rect x="4211" y="369" width="1532" height="766"/></clipPath><clipPath id="clip20"><rect x="4211" y="369" width="1532" height="766"/></clipPath><clipPath id="clip21"><rect x="4211" y="369" width="1532" height="766"/></clipPath><clipPath id="clip22"><rect x="4211" y="369" width="1532" height="766"/></clipPath><clipPath id="clip23"><rect x="4211" y="369" width="1532" height="766"/></clipPath><clipPath id="clip24"><rect x="4211" y="369" width="1532" height="766"/></clipPath><clipPath id="clip25"><rect x="4211" y="369" width="1532" height="766"/></clipPath><clipPath id="clip26"><rect x="4211" y="369" width="1532" height="766"/></clipPath><clipPath id="clip27"><rect x="4211" y="369" width="1532" height="766"/></clipPath><clipPath id="clip28"><rect x="4211" y="369" width="1532" height="766"/></clipPath><clipPath id="clip29"><rect x="4211" y="369" width="1532" height="766"/></clipPath><clipPath id="clip30"><rect x="4211" y="369" width="1532" height="766"/></clipPath><clipPath id="clip31"><rect x="4211" y="369" width="1532" height="766"/></clipPath></defs><g clip-path="url(#clip0)" transform="translate(-4210 -369)"><rect x="4211" y="370" width="1533" height="766" fill="#FFFFFF"/><g clip-path="url(#clip1)"><rect x="4330" y="420" width="1363" height="601" fill="#FFFFFF"/></g><g clip-path="url(#clip2)"><path d="M4330 921.03 5693 921.03M4330 721.024 5693 721.024M4330 521.017 5693 521.017" stroke="#F2F2F2" stroke-width="2.29167" stroke-linejoin="round" stroke-miterlimit="10" fill="none"/></g><g clip-path="url(#clip3)"><path d="M4330 821.027 5693 821.027M4330 621.02 5693 621.02M4330 420 5693 420" stroke="#D9D9D9" stroke-width="2.29167" stroke-linejoin="round" stroke-miterlimit="10" fill="none"/></g><g clip-path="url(#clip4)"><path d="M4921.16 941.031 5102.17 941.031 5102.17 1021 4921.16 1021ZM5193.17 621.02 5375.18 621.02 5375.18 1021 5193.17 1021ZM5466.18 460.015 5648.19 460.015 5648.19 1021 5466.18 1021Z" fill="#4472C4"/></g><g clip-path="url(#clip5)"><path d="M0 0 0.000360892 601" stroke="#898989" stroke-width="2.29167" stroke-linejoin="round" stroke-miterlimit="10" fill="none" fill-rule="evenodd" transform="matrix(1 0 0 -1 4330 1021)"/></g><g clip-path="url(#clip6)"><path d="M4316 1021 4330 1021M4316 821.027 4330 821.027M4316 621.02 4330 621.02M4316 420 4330 420" stroke="#898989" stroke-width="2.29167" stroke-linejoin="round" stroke-miterlimit="10" fill="none"/></g><g clip-path="url(#clip7)"><path d="M4330 1021 5693 1021" stroke="#898989" stroke-width="2.29167" stroke-linejoin="round" stroke-miterlimit="10" fill="none" fill-rule="evenodd"/></g><g clip-path="url(#clip8)"><path d="M4330 1021 4330 1035M4603.15 1021 4603.15 1035M4875.16 1021 4875.16 1035M5148.17 1021 5148.17 1035M5420.18 1021 5420.18 1035M5693 1021 5693 1035" stroke="#898989" stroke-width="2.29167" stroke-linejoin="round" stroke-miterlimit="10" fill="none"/></g><g clip-path="url(#clip9)"><rect x="4389" y="938" width="155" height="68.9998" fill="#FFFFFF"/></g><g clip-path="url(#clip10)"><text font-family="Calibri,Calibri_MSFontService,sans-serif" font-weight="400" font-size="46" transform="matrix(1 0 0 1 4402.51 988)">0</text></g><g clip-path="url(#clip11)"><text font-family="Calibri,Calibri_MSFontService,sans-serif" font-weight="400" font-size="46" transform="matrix(1 0 0 1 4436.11 988)">(0 %)</text></g><g clip-path="url(#clip12)"><rect x="4661" y="938" width="156" height="68.9998" fill="#FFFFFF"/></g><g clip-path="url(#clip13)"><text font-family="Calibri,Calibri_MSFontService,sans-serif" font-weight="400" font-size="46" transform="matrix(1 0 0 1 4675.16 988)">0</text></g><g clip-path="url(#clip14)"><text font-family="Calibri,Calibri_MSFontService,sans-serif" font-weight="400" font-size="46" transform="matrix(1 0 0 1 4708.75 988)">(0 %)</text></g><g clip-path="url(#clip15)"><rect x="4917" y="857" width="190" height="70.0001" fill="#FFFFFF"/></g><g clip-path="url(#clip16)"><text font-family="Calibri,Calibri_MSFontService,sans-serif" font-weight="400" font-size="46" transform="matrix(1 0 0 1 4930.47 908)">2 (7,7 %)</text></g><g clip-path="url(#clip17)"><rect x="5166" y="537" width="237" height="70.0001" fill="#FFFFFF"/></g><g clip-path="url(#clip18)"><text font-family="Calibri,Calibri_MSFontService,sans-serif" font-weight="400" font-size="46" transform="matrix(1 0 0 1 5179.87 588)">10</text></g><g clip-path="url(#clip19)"><text font-family="Calibri,Calibri_MSFontService,sans-serif" font-weight="400" font-size="46" transform="matrix(1 0 0 1 5236.71 588)">(38,5 %)</text></g><g clip-path="url(#clip20)"><rect x="5439" y="377" width="236" height="69.9998" fill="#FFFFFF"/></g><g clip-path="url(#clip21)"><text font-family="Calibri,Calibri_MSFontService,sans-serif" font-weight="400" font-size="46" transform="matrix(1 0 0 1 5452.52 428)">14</text></g><g clip-path="url(#clip22)"><text font-family="Calibri,Calibri_MSFontService,sans-serif" font-weight="400" font-size="46" transform="matrix(1 0 0 1 5509.35 428)">(53,8 %)</text></g><g clip-path="url(#clip23)"><text font-family="Calibri,Calibri_MSFontService,sans-serif" font-weight="400" font-size="46" transform="matrix(1 0 0 1 4264.31 1034)">0</text></g><g clip-path="url(#clip24)"><text font-family="Calibri,Calibri_MSFontService,sans-serif" font-weight="400" font-size="46" transform="matrix(1 0 0 1 4264.31 834)">5</text></g><g clip-path="url(#clip25)"><text font-family="Calibri,Calibri_MSFontService,sans-serif" font-weight="400" font-size="46" transform="matrix(1 0 0 1 4241.07 634)">10</text></g><g clip-path="url(#clip26)"><text font-family="Calibri,Calibri_MSFontService,sans-serif" font-weight="400" font-size="46" transform="matrix(1 0 0 1 4241.07 434)">15</text></g><g clip-path="url(#clip27)"><text font-family="Calibri,Calibri_MSFontService,sans-serif" font-weight="400" font-size="46" transform="matrix(1 0 0 1 4454.76 1094)">1</text></g><g clip-path="url(#clip28)"><text font-family="Calibri,Calibri_MSFontService,sans-serif" font-weight="400" font-size="46" transform="matrix(1 0 0 1 4727.41 1094)">2</text></g><g clip-path="url(#clip29)"><text font-family="Calibri,Calibri_MSFontService,sans-serif" font-weight="400" font-size="46" transform="matrix(1 0 0 1 5000.05 1094)">3</text></g><g clip-path="url(#clip30)"><text font-family="Calibri,Calibri_MSFontService,sans-serif" font-weight="400" font-size="46" transform="matrix(1 0 0 1 5272.7 1094)">4</text></g><g clip-path="url(#clip31)"><text font-family="Calibri,Calibri_MSFontService,sans-serif" font-weight="400" font-size="46" transform="matrix(1 0 0 1 5545.34 1094)">5</text></g><rect x="4211" y="370" width="1533" height="766" stroke="#898989" stroke-width="2.29167" stroke-linejoin="round" stroke-miterlimit="10" fill="none"/></g></svg>