<svg width="1756" height="890" xmlns="http://www.w3.org/2000/svg" xmlns:xlink="http://www.w3.org/1999/xlink" xml:space="preserve" overflow="hidden"><defs><clipPath id="clip0"><rect x="4228" y="369" width="1756" height="890"/></clipPath><clipPath id="clip1"><rect x="4228" y="369" width="1756" height="890"/></clipPath><clipPath id="clip2"><rect x="4228" y="369" width="1756" height="890"/></clipPath><clipPath id="clip3"><rect x="4228" y="369" width="1756" height="890"/></clipPath><clipPath id="clip4"><rect x="4451" y="420" width="1486" height="623"/></clipPath><clipPath id="clip5"><rect x="4228" y="369" width="1756" height="890"/></clipPath><clipPath id="clip6"><rect x="4228" y="369" width="1756" height="890"/></clipPath><clipPath id="clip7"><rect x="4228" y="369" width="1756" height="890"/></clipPath><clipPath id="clip8"><rect x="4228" y="369" width="1756" height="890"/></clipPath><clipPath id="clip9"><rect x="4228" y="369" width="1756" height="890"/></clipPath><clipPath id="clip10"><rect x="4228" y="369" width="1756" height="890"/></clipPath><clipPath id="clip11"><rect x="4228" y="369" width="1756" height="890"/></clipPath><clipPath id="clip12"><rect x="4228" y="369" width="1756" height="890"/></clipPath><clipPath id="clip13"><rect x="4228" y="369" width="1756" height="890"/></clipPath><clipPath id="clip14"><rect x="4228" y="369" width="1756" height="890"/></clipPath><clipPath id="clip15"><rect x="4228" y="369" width="1756" height="890"/></clipPath><clipPath id="clip16"><rect x="4228" y="369" width="1756" height="890"/></clipPath><clipPath id="clip17"><rect x="4228" y="369" width="1756" height="890"/></clipPath><clipPath id="clip18"><rect x="4228" y="369" width="1756" height="890"/></clipPath><clipPath id="clip19"><rect x="4228" y="369" width="1756" height="890"/></clipPath><clipPath id="clip20"><rect x="4228" y="369" width="1756" height="890"/></clipPath><clipPath id="clip21"><rect x="4228" y="369" width="1756" height="890"/></clipPath><clipPath id="clip22"><rect x="4228" y="369" width="1756" height="890"/></clipPath><clipPath id="clip23"><rect x="4228" y="369" width="1756" height="890"/></clipPath><clipPath id="clip24"><rect x="4228" y="369" width="1756" height="890"/></clipPath><clipPath id="clip25"><rect x="4228" y="369" width="1756" height="890"/></clipPath><clipPath id="clip26"><rect x="4228" y="369" width="1756" height="890"/></clipPath></defs><g clip-path="url(#clip0)" transform="translate(-4228 -369)"><rect x="4228" y="369" width="1756" height="890" fill="#FFFFFF"/><g clip-path="url(#clip1)"><rect x="4451" y="420" width="1483" height="620" fill="#FFFFFF"/></g><g clip-path="url(#clip2)"><path d="M4451 978.032 5934 978.032M4451 854.028 5934 854.028M4451 730.024 5934 730.024M4451 606.02 5934 606.02M4451 482.016 5934 482.016" stroke="#F2F2F2" stroke-width="2.29167" stroke-linejoin="round" stroke-miterlimit="10" fill="none"/></g><g clip-path="url(#clip3)"><path d="M4451 916.03 5934 916.03M4451 792.026 5934 792.026M4451 668.022 5934 668.022M4451 544.018 5934 544.018M4451 420 5934 420" stroke="#D9D9D9" stroke-width="2.29167" stroke-linejoin="round" stroke-miterlimit="10" fill="none"/></g><g clip-path="url(#clip4)"><path d="M5093.17 966.032 5291.17 966.032 5291.17 1040 5093.17 1040ZM5390.18 767.025 5588.18 767.025 5588.18 1040 5390.18 1040ZM5686.19 544.018 5884.19 544.018 5884.19 1040 5686.19 1040Z" fill="#4472C4"/></g><g clip-path="url(#clip5)"><path d="M0 0 0.000360892 620" stroke="#898989" stroke-width="2.29167" stroke-linejoin="round" stroke-miterlimit="10" fill="none" fill-rule="evenodd" transform="matrix(1 0 0 -1 4451 1040)"/></g><g clip-path="url(#clip6)"><path d="M4437 1040 4451 1040M4437 916.03 4451 916.03M4437 792.026 4451 792.026M4437 668.022 4451 668.022M4437 544.018 4451 544.018M4437 420 4451 420" stroke="#898989" stroke-width="2.29167" stroke-linejoin="round" stroke-miterlimit="10" fill="none"/></g><g clip-path="url(#clip7)"><path d="M4451 1040 5934 1040" stroke="#898989" stroke-width="2.29167" stroke-linejoin="round" stroke-miterlimit="10" fill="none" fill-rule="evenodd"/></g><g clip-path="url(#clip8)"><path d="M4451 1040 4451 1055M4748.16 1040 4748.16 1055M5044.17 1040 5044.17 1055M5341.18 1040 5341.18 1055M5637.19 1040 5637.19 1055M5934 1040 5934 1055" stroke="#898989" stroke-width="2.29167" stroke-linejoin="round" stroke-miterlimit="10" fill="none"/></g><g clip-path="url(#clip9)"><text font-family="Calibri,Calibri_MSFontService,sans-serif" font-weight="400" font-size="46" transform="matrix(1 0 0 1 4535.7 1008)">0 (0 %)</text></g><g clip-path="url(#clip10)"><text font-family="Calibri,Calibri_MSFontService,sans-serif" font-weight="400" font-size="46" transform="matrix(1 0 0 1 4832.15 1008)">0 (0 %)</text></g><g clip-path="url(#clip11)"><text font-family="Calibri,Calibri_MSFontService,sans-serif" font-weight="400" font-size="46" transform="matrix(1 0 0 1 5111.26 933)">3 (8,8 %)</text></g><g clip-path="url(#clip12)"><text font-family="Calibri,Calibri_MSFontService,sans-serif" font-weight="400" font-size="46" transform="matrix(1 0 0 1 5384.47 735)">11 (32,4 %)</text></g><g clip-path="url(#clip13)"><text font-family="Calibri,Calibri_MSFontService,sans-serif" font-weight="400" font-size="46" transform="matrix(1 0 0 1 5680.92 511)">20 (58,8 %)</text></g><g clip-path="url(#clip14)"><text font-family="Calibri,Calibri_MSFontService,sans-serif" font-weight="400" font-size="46" transform="matrix(1 0 0 1 4385.6 1054)">0</text></g><g clip-path="url(#clip15)"><text font-family="Calibri,Calibri_MSFontService,sans-serif" font-weight="400" font-size="46" transform="matrix(1 0 0 1 4385.6 930)">5</text></g><g clip-path="url(#clip16)"><text font-family="Calibri,Calibri_MSFontService,sans-serif" font-weight="400" font-size="46" transform="matrix(1 0 0 1 4362.36 806)">10</text></g><g clip-path="url(#clip17)"><text font-family="Calibri,Calibri_MSFontService,sans-serif" font-weight="400" font-size="46" transform="matrix(1 0 0 1 4362.36 682)">15</text></g><g clip-path="url(#clip18)"><text font-family="Calibri,Calibri_MSFontService,sans-serif" font-weight="400" font-size="46" transform="matrix(1 0 0 1 4362.36 558)">20</text></g><g clip-path="url(#clip19)"><text font-family="Calibri,Calibri_MSFontService,sans-serif" font-weight="400" font-size="46" transform="matrix(1 0 0 1 4362.36 434)">25</text></g><g clip-path="url(#clip20)"><text font-family="Calibri,Calibri_MSFontService,sans-serif" font-weight="400" font-size="46" transform="matrix(1 0 0 1 4587.95 1113)">1</text></g><g clip-path="url(#clip21)"><text font-family="Calibri,Calibri_MSFontService,sans-serif" font-weight="400" font-size="46" transform="matrix(1 0 0 1 4884.4 1113)">2</text></g><g clip-path="url(#clip22)"><text font-family="Calibri,Calibri_MSFontService,sans-serif" font-weight="400" font-size="46" transform="matrix(1 0 0 1 5180.85 1113)">3</text></g><g clip-path="url(#clip23)"><text font-family="Calibri,Calibri_MSFontService,sans-serif" font-weight="400" font-size="46" transform="matrix(1 0 0 1 5477.29 1113)">4</text></g><g clip-path="url(#clip24)"><text font-family="Calibri,Calibri_MSFontService,sans-serif" font-weight="400" font-size="46" transform="matrix(1 0 0 1 5773.74 1113)">5</text></g><g clip-path="url(#clip25)"><text font-family="Times New Roman,Times New Roman_MSFontService,sans-serif" font-weight="700" font-size="55" transform="matrix(6.12323e-17 -1 1 6.12323e-17 4308.85 920)">Počet odpovědí</text></g><g clip-path="url(#clip26)"><text font-family="Times New Roman,Times New Roman_MSFontService,sans-serif" font-weight="700" font-size="55" transform="matrix(1 0 0 1 5065.63 1190)">Hodnocení</text></g></g></svg>